<?xml version="1.0" encoding="iso-8859-1"?>
<!-- Generator: Adobe Illustrator 19.0.0, SVG Export Plug-In . SVG Version: 6.00 Build 0)  -->
<svg version="1.1" id="Capa_1" xmlns="http://www.w3.org/2000/svg" xmlns:xlink="http://www.w3.org/1999/xlink" x="0px" y="0px"
	 viewBox="0 0 512 512" style="enable-background:new 0 0 512 512;" xml:space="preserve">
<g>
	<polygon style="fill:#F4CD1E;" points="463.448,73.181 463.448,146.273 388.414,146.273 388.414,182.819 275.862,182.819 
		275.862,219.454 200.828,219.454 200.828,292.546 275.862,292.546 275.862,329.181 388.414,329.181 388.414,365.727 
		463.448,365.727 463.448,438.819 425.931,438.819 425.931,475.454 350.897,475.454 350.897,512 163.31,512 163.31,475.454 
		88.276,475.454 88.276,438.819 50.759,438.819 50.759,365.727 13.241,365.727 13.241,146.273 50.759,146.273 50.759,73.181 
		88.276,73.181 88.276,36.546 163.31,36.546 163.31,0 350.897,0 350.897,36.546 425.931,36.546 425.931,73.181 	"/>
	<rect id="SVGCleanerId_0" x="304.552" y="238.345" style="fill:#F6DB6D;" width="35.31" height="35.31"/>
	<rect id="SVGCleanerId_1" x="384" y="238.345" style="fill:#F6DB6D;" width="35.31" height="35.31"/>
	<rect id="SVGCleanerId_2" x="463.448" y="238.345" style="fill:#F6DB6D;" width="35.31" height="35.31"/>
	<polygon style="fill:#F4CD1E;" points="463.448,73.181 463.448,146.273 388.414,146.273 388.414,182.819 275.862,182.819 
		275.862,219.454 200.828,219.454 200.828,292.546 275.862,292.546 275.862,329.181 388.414,329.181 388.414,365.727 
		463.448,365.727 463.448,438.819 425.931,438.819 425.931,475.454 350.897,475.454 350.897,512 163.31,512 163.31,475.454 
		88.276,475.454 88.276,438.819 50.759,438.819 50.759,365.727 13.241,365.727 13.241,146.273 50.759,146.273 50.759,73.181 
		88.276,73.181 88.276,36.546 163.31,36.546 163.31,0 350.897,0 350.897,36.546 425.931,36.546 425.931,73.181 	"/>
	<g>
		<rect id="SVGCleanerId_0_1_" x="304.552" y="238.345" style="fill:#F6DB6D;" width="35.31" height="35.31"/>
	</g>
	<g>
		<rect id="SVGCleanerId_1_1_" x="384" y="238.345" style="fill:#F6DB6D;" width="35.31" height="35.31"/>
	</g>
	<g>
		<rect id="SVGCleanerId_2_1_" x="463.448" y="238.345" style="fill:#F6DB6D;" width="35.31" height="35.31"/>
	</g>
</g>
<g>
</g>
<g>
</g>
<g>
</g>
<g>
</g>
<g>
</g>
<g>
</g>
<g>
</g>
<g>
</g>
<g>
</g>
<g>
</g>
<g>
</g>
<g>
</g>
<g>
</g>
<g>
</g>
<g>
</g>
</svg>
